<?xml version="1.0" standalone="no"?>
<!DOCTYPE svg PUBLIC "-//W3C//DTD SVG 20010904//EN"
 "http://www.w3.org/TR/2001/REC-SVG-20010904/DTD/svg10.dtd">
<svg version="1.0" xmlns="http://www.w3.org/2000/svg"
 width="501.000000pt" height="501.000000pt" viewBox="0 0 501.000000 501.000000"
 preserveAspectRatio="xMidYMid meet">
<metadata>
Created by potrace 1.14, written by Peter Selinger 2001-2017
</metadata>
<g transform="translate(0.000000,501.000000) scale(0.100000,-0.100000)"
fill="#000000" stroke="none">
<path d="M2595 4851 c6 -11 4 -13 -8 -8 -10 3 -17 3 -17 -1 0 -5 -17 -8 -37
-7 -21 0 -48 -6 -60 -13 -12 -7 -32 -12 -45 -10 -13 2 -22 -2 -21 -7 1 -6 -11
-10 -25 -9 -15 0 -46 -7 -69 -17 -23 -10 -50 -18 -60 -18 -44 -1 -59 -4 -72
-15 -11 -8 -13 -8 -8 1 4 6 -21 -2 -55 -19 -35 -16 -67 -36 -71 -44 -4 -8 -13
-14 -20 -14 -7 0 -26 -12 -42 -27 -16 -16 -31 -26 -32 -23 -6 11 -63 -46 -63
-62 0 -10 -5 -18 -11 -18 -5 0 -7 -4 -4 -10 3 -5 1 -10 -5 -10 -6 0 -9 -4 -5
-9 3 -5 1 -12 -4 -15 -5 -4 -8 -14 -7 -23 2 -9 -4 -25 -12 -34 -16 -19 -24
-41 -23 -71 0 -10 -4 -18 -9 -18 -5 0 -7 -9 -5 -20 2 -11 0 -20 -4 -20 -7 0
-22 -37 -25 -62 -1 -3 -4 -9 -8 -13 -4 -4 -4 -13 -1 -21 3 -8 -1 -14 -8 -14
-7 0 -10 -3 -6 -6 3 -3 -1 -23 -8 -45 -8 -21 -12 -39 -8 -39 3 0 0 -7 -7 -15
-7 -8 -10 -15 -7 -15 4 0 0 -18 -8 -40 -8 -22 -12 -40 -8 -40 3 0 0 -6 -6 -14
-6 -8 -11 -18 -9 -22 4 -15 -25 -158 -35 -171 -6 -9 -6 -13 0 -13 6 0 10 -13
9 -30 -1 -16 -3 -30 -6 -30 -3 0 -6 -71 -6 -158 -2 -187 -7 -282 -15 -282 -4
0 -6 -10 -5 -22 1 -13 -2 -39 -6 -58 -5 -19 -10 -47 -13 -63 -2 -15 -7 -32
-11 -38 -20 -34 -20 -395 1 -429 3 -6 1 -10 -5 -10 -6 0 -8 -5 -3 -12 9 -16
10 -23 17 -122 3 -45 8 -97 11 -116 4 -19 8 -53 11 -75 2 -22 6 -56 10 -75 3
-19 5 -43 5 -52 0 -10 4 -20 10 -23 5 -4 9 -19 9 -35 0 -16 4 -31 9 -35 6 -3
10 -13 10 -23 1 -38 5 -52 13 -52 4 0 8 -7 8 -15 0 -8 13 -37 30 -63 17 -27
30 -57 30 -66 0 -9 5 -16 10 -16 6 0 10 -7 10 -15 0 -8 5 -15 10 -15 6 0 10
-6 10 -14 0 -8 3 -16 8 -18 4 -2 23 -23 42 -48 19 -25 37 -47 40 -50 3 -3 12
-14 20 -24 13 -18 13 -19 0 -11 -12 6 -13 5 -2 -6 26 -29 12 -110 -24 -129
-13 -8 -24 -19 -24 -27 0 -7 -6 -13 -12 -13 -7 0 -33 -27 -58 -60 -25 -32 -48
-59 -52 -59 -5 -1 -8 -8 -8 -16 0 -8 -4 -15 -10 -15 -5 0 -10 -6 -10 -13 0 -8
-11 -24 -25 -37 -14 -13 -23 -25 -21 -28 2 -2 -2 -11 -10 -20 -9 -10 -28 -34
-44 -55 -16 -21 -32 -38 -37 -38 -4 0 -21 -6 -38 -13 -16 -8 -50 -19 -75 -27
-25 -7 -50 -16 -56 -21 -6 -4 -25 -8 -42 -10 -18 -1 -32 -5 -32 -8 0 -3 -15
-6 -33 -7 -33 -3 -72 -10 -72 -14 0 -1 -9 -3 -20 -4 -11 -2 -47 -10 -80 -20
-87 -24 -99 -27 -112 -27 -7 -1 -13 -4 -13 -8 0 -3 -9 -6 -20 -7 -11 -1 -34
-9 -51 -17 -18 -9 -35 -13 -40 -10 -5 3 -9 0 -9 -5 0 -6 -4 -11 -9 -11 -5 0
-22 -5 -38 -12 -15 -6 -31 -11 -35 -10 -5 1 -8 -3 -8 -8 0 -6 -7 -10 -15 -10
-8 0 -23 -4 -33 -9 -9 -5 -33 -17 -52 -25 -47 -22 -72 -38 -86 -55 -6 -8 -16
-11 -23 -7 -6 4 -10 4 -9 -1 2 -4 -16 -28 -40 -52 -40 -41 -82 -117 -82 -147
0 -8 -4 -14 -8 -14 -5 0 -9 -6 -9 -12 -1 -7 -8 -41 -17 -75 -9 -34 -19 -74
-21 -90 -2 -15 -8 -43 -14 -62 -6 -18 -10 -36 -9 -40 0 -3 -1 -8 -2 -11 -4
-11 -11 -46 -13 -67 -1 -13 -6 -23 -11 -23 -5 0 -7 -2 -4 -5 3 -4 1 -25 -4
-48 -14 -62 -17 -77 -22 -129 l-5 -48 2334 0 2335 0 0 363 0 363 -42 22 c-24
12 -38 22 -33 22 6 0 -4 7 -20 15 -17 8 -43 26 -59 40 -15 13 -41 30 -57 37
-16 7 -29 17 -29 21 0 5 -4 5 -10 2 -5 -3 -10 -2 -10 3 0 5 -25 20 -55 33 -30
13 -55 27 -55 31 0 5 -7 8 -15 8 -8 0 -23 4 -33 10 -9 5 -48 24 -87 41 -92 40
-408 199 -415 207 -6 8 -31 24 -75 48 -16 9 -38 25 -48 35 -10 11 -22 17 -26
14 -5 -2 -14 2 -21 10 -7 8 -19 15 -27 15 -7 0 -31 9 -52 20 -21 10 -41 16
-45 13 -3 -4 -6 1 -6 10 0 9 -4 17 -9 17 -5 0 -19 26 -31 57 -13 32 -28 64
-33 70 -5 7 -7 13 -3 13 4 0 -1 15 -11 32 -9 18 -18 35 -18 38 -10 40 -19 60
-26 60 -5 0 -9 8 -9 18 -1 20 -50 88 -80 109 -11 8 -20 21 -20 29 0 8 -5 14
-11 14 -14 0 -6 54 26 192 3 13 8 40 10 61 2 21 6 41 9 45 2 4 7 28 11 52 3
25 11 65 16 90 12 54 22 119 21 142 -1 22 24 43 33 28 17 -27 134 -2 163 35
11 13 22 21 26 18 3 -3 6 -1 6 5 0 7 0 14 0 17 0 3 9 14 20 25 12 12 18 25 15
30 -4 6 -2 10 3 10 7 0 39 65 41 85 1 3 7 20 14 38 12 27 28 89 32 122 3 24
26 101 34 116 5 9 9 58 9 109 0 136 -26 169 -115 146 -49 -13 -50 -13 -48 8 1
11 3 21 5 21 6 0 12 121 23 533 1 45 0 82 -3 82 -3 0 -6 15 -7 33 -6 99 -14
151 -25 165 -11 13 -11 14 1 7 11 -6 12 -5 5 6 -9 14 -14 34 -16 57 -1 6 -5
12 -10 12 -4 0 -8 7 -8 16 0 9 -5 12 -12 8 -10 -6 -10 -4 0 7 14 16 17 93 2
84 -5 -3 -10 -1 -10 5 0 6 -10 9 -23 6 -18 -3 -23 1 -25 20 -1 21 0 22 12 12
8 -7 12 -16 9 -20 -2 -4 3 -5 11 -2 12 5 9 11 -14 31 -17 14 -30 34 -30 44 0
11 -4 18 -9 14 -6 -3 -15 5 -22 17 -7 13 -25 35 -40 49 -16 15 -25 29 -22 33
3 3 -1 6 -10 6 -8 0 -25 14 -37 30 -12 17 -25 28 -29 25 -4 -2 -24 11 -44 29
-21 19 -37 32 -37 29 0 -2 -15 11 -32 29 -30 31 -92 67 -122 72 -6 1 -17 5
-23 9 -7 5 -13 5 -13 1 0 -4 -7 1 -15 12 -8 10 -15 16 -15 11 0 -4 -13 -1 -29
7 -16 9 -31 12 -35 9 -3 -4 -6 -2 -6 4 0 12 -34 26 -62 26 -10 0 -18 3 -18 8
0 5 -7 6 -15 3 -8 -3 -20 -2 -27 2 -7 5 -19 9 -27 11 -8 1 -18 8 -22 15 -5 7
-9 9 -9 4 0 -5 -8 -2 -17 5 -11 10 -14 10 -9 2 4 -7 3 -13 -3 -13 -5 0 -16 6
-23 13 -7 6 -22 13 -33 14 -42 3 -60 11 -57 24 2 10 0 10 -11 0 -12 -9 -18 -8
-31 4 -9 9 -16 12 -16 6 0 -7 -8 -7 -22 -2 -30 11 -32 11 -68 1 -19 -5 -30 -5
-30 1 0 6 -6 7 -12 2 -23 -14 -59 -14 -76 -1 -13 11 -14 11 -7 -1z"/>
</g>
</svg>
